<svg width="0" height="0" class="hidden">
  <symbol fill="none" xmlns="http://www.w3.org/2000/svg" viewBox="0 0 36 24" id="dark">
    <g clip-path="url('#clip0_1_294')">
      <path fill-rule="evenodd" clip-rule="evenodd" d="M11.2203 9.83469V13.7675H17.5837C17.3273 15.4553 15.6603 18.7163 11.2203 18.7163C7.38934 18.7163 4.2637 15.4717 4.2637 11.4734C4.2637 7.47501 7.38934 4.23045 11.2203 4.23045C13.4002 4.23045 14.8588 5.18087 15.6923 6.00021L18.7378 3.00145C16.7823 1.13337 14.2497 0.00268555 11.2203 0.00268555C5.01706 0.00268555 0 5.13171 0 11.4734C0 17.815 5.01706 22.944 11.2203 22.944C17.6959 22.944 21.9917 18.2902 21.9917 11.7355C21.9917 10.9818 21.9116 10.4082 21.8154 9.83469H11.2203Z" fill="#7D7D7D"></path>
      <path fill-rule="evenodd" clip-rule="evenodd" d="M35.2637 9.83471H32.0579V6.55737H28.8521V9.83471H25.6463V13.112H28.8521V16.3894H32.0579V13.112H35.2637" fill="#7D7D7D"></path>
    </g>
    <defs>
      <clipPath id="clip0_1_294">
        <rect width="36" height="23" fill="white" transform="translate(0 0.00268555)"></rect>
      </clipPath>
    </defs>
  </symbol>
  <symbol fill="none" xmlns="http://www.w3.org/2000/svg" viewBox="0 0 28 19" id="primary">
    <g clip-path="url('#clip0_1_83')">
      <path fill-rule="evenodd" clip-rule="evenodd" d="M8.91099 7.4754V10.4037H13.6664C13.4747 11.6605 12.229 14.0886 8.91099 14.0886C6.04816 14.0886 3.71237 11.6727 3.71237 8.69554C3.71237 5.71839 6.04816 3.30251 8.91099 3.30251C10.54 3.30251 11.6301 4.01019 12.253 4.62026L14.5288 2.3874C13.0675 0.99644 11.1749 0.154541 8.91099 0.154541C4.27536 0.154541 0.526123 3.97359 0.526123 8.69554C0.526123 13.4175 4.27536 17.2365 8.91099 17.2365C13.7503 17.2365 16.9605 13.7713 16.9605 8.89076C16.9605 8.3295 16.9006 7.90245 16.8287 7.4754H8.91099Z" fill="#EBCB80"></path>
      <path fill-rule="evenodd" clip-rule="evenodd" d="M26.8786 7.47538H24.4829V5.0351H22.0872V7.47538H19.6915V9.91567H22.0872V12.356H24.4829V9.91567H26.8786" fill="#EBCB80"></path>
    </g>
    <defs>
      <clipPath id="clip0_1_83">
        <rect width="27" height="18" fill="white" transform="translate(0.526123 0.154541)"></rect>
      </clipPath>
    </defs>
  </symbol>
</svg>