<svg width="0" height="0" class="hidden">
  <symbol fill="none" xmlns="http://www.w3.org/2000/svg" viewBox="0 0 30 24" id="dark">
    <mask id="mask0_1_288" maskUnits="userSpaceOnUse" x="0" y="0" width="30" height="24">
      <path fill-rule="evenodd" clip-rule="evenodd" d="M0 23.9692H29.4167V0H0V23.9692Z" fill="white"></path>
    </mask>
    <g mask="url('#mask0_1_288')">
      <path fill-rule="evenodd" clip-rule="evenodd" d="M29.4231 2.83819C28.3406 3.31958 27.1771 3.64494 25.9561 3.79127C27.2024 3.04214 28.1595 1.85598 28.6103 0.442654C27.4439 1.1362 26.152 1.63994 24.777 1.91144C23.6758 0.735096 22.107 0 20.3708 0C17.037 0 14.3341 2.70999 14.3341 6.05256C14.3341 6.52694 14.3876 6.98891 14.4905 7.43189C9.47354 7.17948 5.02558 4.76981 2.04829 1.10793C1.52868 2.00187 1.231 3.0416 1.231 4.15083C1.231 6.25069 2.29679 8.10332 3.91652 9.18869C2.92692 9.15729 1.9962 8.88503 1.18224 8.43169C1.18181 8.45694 1.18181 8.4823 1.18181 8.50777C1.18181 11.4404 3.2626 13.8867 6.02411 14.4427C5.51752 14.581 4.98425 14.655 4.43365 14.655C4.0447 14.655 3.66651 14.6171 3.29801 14.5464C4.06612 16.9511 6.29543 18.701 8.93693 18.7499C6.871 20.3732 4.26813 21.3409 1.44 21.3409C0.952789 21.3409 0.472251 21.3123 0 21.2564C2.67143 22.9737 5.84448 23.9756 9.25345 23.9756C20.3567 23.9756 26.4284 14.7527 26.4284 6.75442C26.4284 6.49198 26.4226 6.23094 26.411 5.97141C27.5903 5.11804 28.6138 4.05198 29.4231 2.83819Z" fill="#7D7D7D"></path>
    </g>
  </symbol>
  <symbol fill="none" xmlns="http://www.w3.org/2000/svg" viewBox="0 0 20 16" id="light">
    <mask id="mask0_1_743" maskUnits="userSpaceOnUse" x="0" y="0" width="20" height="16">
      <path fill-rule="evenodd" clip-rule="evenodd" d="M0.00439453 15.9958H19.6155V0.059082H0.00439453V15.9958Z" fill="white"></path>
    </mask>
    <g mask="url('#mask0_1_743')">
      <path fill-rule="evenodd" clip-rule="evenodd" d="M19.6154 1.94615C18.8937 2.26622 18.1181 2.48254 17.304 2.57984C18.135 2.08175 18.773 1.29309 19.0735 0.353396C18.296 0.814526 17.4347 1.14945 16.518 1.32997C15.7839 0.547835 14.738 0.059082 13.5806 0.059082C11.358 0.059082 9.55609 1.86091 9.55609 4.08333C9.55609 4.39874 9.59175 4.7059 9.66034 5.00043C6.3157 4.83261 3.35039 3.23045 1.36552 0.795728C1.01912 1.3901 0.820664 2.0814 0.820664 2.8189C0.820664 4.21506 1.53119 5.44685 2.61101 6.1685C1.95128 6.14762 1.3308 5.9666 0.788161 5.66518C0.787874 5.68197 0.787874 5.69883 0.787874 5.71576C0.787874 7.66561 2.17507 9.29216 4.01607 9.66181C3.67835 9.75379 3.32283 9.80294 2.95577 9.80294C2.69647 9.80294 2.44434 9.77775 2.19867 9.73076C2.71074 11.3296 4.19695 12.4931 5.95796 12.5256C4.58066 13.6049 2.84542 14.2483 0.96 14.2483C0.635193 14.2483 0.314834 14.2293 0 14.1921C1.78095 15.3339 3.89632 16.0001 6.16897 16.0001C13.5712 16.0001 17.6189 9.86794 17.6189 4.54999C17.6189 4.37549 17.6151 4.20193 17.6073 4.02938C18.3935 3.46199 19.0759 2.75318 19.6154 1.94615Z" fill="#FFFFFE"></path>
    </g>
  </symbol>
  <symbol fill="none" xmlns="http://www.w3.org/2000/svg" viewBox="0 0 24 19" id="primary">
    <mask id="mask0_1_80" maskUnits="userSpaceOnUse" x="0" y="0" width="24" height="19">
      <path fill-rule="evenodd" clip-rule="evenodd" d="M0.586914 18.0679H23.0991V0.220581H0.586914V18.0679Z" fill="white"></path>
    </mask>
    <g mask="url('#mask0_1_80')">
      <path fill-rule="evenodd" clip-rule="evenodd" d="M23.0991 2.33388C22.2706 2.69233 21.3802 2.93458 20.4458 3.04354C21.3996 2.48574 22.132 1.60253 22.477 0.550179C21.5844 1.06659 20.5957 1.44167 19.5435 1.64383C18.7007 0.767929 17.5001 0.220581 16.1715 0.220581C13.6201 0.220581 11.5517 2.23843 11.5517 4.72728C11.5517 5.08051 11.5926 5.42449 11.6713 5.75433C7.83193 5.56639 4.42797 3.77216 2.14949 1.04554C1.75185 1.71116 1.52403 2.48534 1.52403 3.31127C1.52403 4.87481 2.33967 6.25427 3.57923 7.06243C2.8219 7.03905 2.10963 6.83633 1.48672 6.49877C1.48639 6.51758 1.48639 6.53646 1.48639 6.55542C1.48639 8.73903 3.07879 10.5606 5.19213 10.9745C4.80445 11.0776 4.39634 11.1326 3.97498 11.1326C3.67732 11.1326 3.3879 11.1044 3.10589 11.0518C3.69371 12.8423 5.39977 14.1453 7.42127 14.1817C5.84024 15.3904 3.8483 16.1109 1.68398 16.1109C1.31113 16.1109 0.943377 16.0896 0.58197 16.048C2.62637 17.3267 5.05467 18.0727 7.6635 18.0727C16.1607 18.0727 20.8072 11.2054 20.8072 5.24989C20.8072 5.05447 20.8028 4.8601 20.7939 4.66686C21.6964 4.03145 22.4797 3.23767 23.0991 2.33388Z" fill="#EBCB80"></path>
    </g>
  </symbol>
</svg>