<svg width="0" height="0" class="hidden">
  <symbol fill="none" xmlns="http://www.w3.org/2000/svg" viewBox="0 0 24 25" id="dark">
    <mask id="mask0_1_291" maskUnits="userSpaceOnUse" x="0" y="0" width="24" height="25">
      <path fill-rule="evenodd" clip-rule="evenodd" d="M0 24.0548H23.9905V0H0V24.0548Z" fill="white"></path>
    </mask>
    <g mask="url(#mask0_1_291)">
      <path fill-rule="evenodd" clip-rule="evenodd"
        d="M22.6664 0H1.32404C0.592719 0 0 0.594308 0 1.32759V22.7272C0 23.4604 0.592719 24.0549 1.32404 24.0549H12.8141V14.7395H9.68764V11.1092H12.8141V8.43189C12.8141 5.32498 14.7066 3.63318 17.4708 3.63318C18.795 3.63318 19.9329 3.73196 20.2645 3.77612V7.02309L18.3474 7.02399C16.8441 7.02399 16.553 7.74025 16.553 8.79133V11.1092H20.1383L19.6716 14.7395H16.553V24.0549H22.6664C23.3977 24.0549 23.9905 23.4604 23.9905 22.7272V1.32759C23.9905 0.594308 23.3977 0 22.6664 0Z"
        fill="#7D7D7D"></path>
    </g>
  </symbol>
  <symbol fill="none" xmlns="http://www.w3.org/2000/svg" viewBox="0 0 17 16" id="light">
    <mask id="mask0_1_746" maskUnits="userSpaceOnUse" x="0" y="0" width="17" height="16">
      <path fill-rule="evenodd" clip-rule="evenodd" d="M0.692383 15.9937H16.686V0H0.692383V15.9937Z"
        fill="white"></path>
    </mask>
    <g mask="url(#mask0_1_746)">
      <path fill-rule="evenodd" clip-rule="evenodd"
        d="M15.8033 0H1.57508C1.08753 0 0.692383 0.395146 0.692383 0.882697V15.111C0.692383 15.5984 1.08753 15.9937 1.57508 15.9937H9.23512V9.80009H7.15081V7.38631H9.23512V5.60623C9.23512 3.54049 10.4968 2.41564 12.3396 2.41564C13.2224 2.41564 13.981 2.48132 14.2021 2.51068V4.66954L12.924 4.67014C11.9218 4.67014 11.7277 5.14637 11.7277 5.84521V7.38631H14.1179L13.8068 9.80009H11.7277V15.9937H15.8033C16.2908 15.9937 16.686 15.5984 16.686 15.111V0.882697C16.686 0.395146 16.2908 0 15.8033 0Z"
        fill="white"></path>
    </g>
  </symbol>
  <symbol fill="none" xmlns="http://www.w3.org/2000/svg" viewBox="0 0 18 19" id="primary">
    <mask id="mask0_1_105" maskUnits="userSpaceOnUse" x="0" y="0" width="18" height="19">
      <path fill-rule="evenodd" clip-rule="evenodd" d="M0 18.0656H17.9604V0.154541H0V18.0656Z"
        fill="white"></path>
    </mask>
    <g mask="url(#mask0_1_105)">
      <path fill-rule="evenodd" clip-rule="evenodd"
        d="M16.9692 0.154541H0.991244C0.443738 0.154541 0 0.59706 0 1.14306V17.0771C0 17.623 0.443738 18.0657 0.991244 18.0657H9.59327V11.1295H7.25264V8.42637H9.59327V6.43288C9.59327 4.11949 11.0101 2.85978 13.0795 2.85978C14.0708 2.85978 14.9228 2.93334 15.171 2.96622V5.3839L13.7358 5.38457C12.6103 5.38457 12.3924 5.91789 12.3924 6.70052V8.42637H15.0765L14.7271 11.1295H12.3924V18.0657H16.9692C17.5166 18.0657 17.9604 17.623 17.9604 17.0771V1.14306C17.9604 0.59706 17.5166 0.154541 16.9692 0.154541Z"
        fill="#EBCB80"></path>
    </g>
  </symbol>
</svg>