<svg width="22" height="15" viewBox="0 0 22 15" fill="none" xmlns="http://www.w3.org/2000/svg">
<path d="M10.5119 -9.53674e-07H13.7519V14H10.5119V-9.53674e-07ZM4.15192 14H0.911922V-9.53674e-07H4.15192V14ZM10.7519 8.26H3.91192V5.52H10.7519V8.26ZM19.1337 14.16C18.6004 14.16 18.1404 13.98 17.7537 13.62C17.3804 13.2467 17.1937 12.7733 17.1937 12.2C17.1937 11.6267 17.3804 11.1667 17.7537 10.82C18.1404 10.46 18.6004 10.28 19.1337 10.28C19.6804 10.28 20.1404 10.46 20.5137 10.82C20.887 11.1667 21.0737 11.6267 21.0737 12.2C21.0737 12.7733 20.887 13.2467 20.5137 13.62C20.1404 13.98 19.6804 14.16 19.1337 14.16Z" fill="#EBCB80"/>
</svg>
