<svg width="0" height="0" class="hidden">
  <symbol xmlns="http://www.w3.org/2000/svg" fill="none" viewBox="0 0 19 18" id="primary">
    <mask id="mask0_1_1081" maskUnits="userSpaceOnUse" x="0" y="0" width="18" height="18">
      <path fill-rule="evenodd" clip-rule="evenodd"
        d="M0.260742 17.3342H17.6392V0H0.260742V17.3342Z" fill="white"></path>
    </mask>
    <g mask="url(#mask0_1_1081)">
      <path fill-rule="evenodd" clip-rule="evenodd"
        d="M15.7083 4.81605C15.7083 5.08202 15.4921 5.29766 15.2255 5.29766H12.8118C12.5453 5.29766 12.3291 5.08202 12.3291 4.81605V2.40803C12.3291 2.14206 12.5453 1.92642 12.8118 1.92642H15.2255C15.4921 1.92642 15.7083 2.14206 15.7083 2.40803V4.81605ZM15.7083 14.9298C15.7083 15.1957 15.4921 15.4114 15.2255 15.4114H2.67442C2.40783 15.4114 2.19168 15.1957 2.19168 14.9298V7.22408H3.83986C3.70964 7.68335 3.63989 8.16803 3.63989 8.6689C3.63989 11.5947 6.01729 13.9666 8.94997 13.9666C11.8826 13.9666 14.26 11.5947 14.26 8.6689C14.26 8.16803 14.1903 7.68335 14.0601 7.22408H15.7083V14.9298ZM8.94997 5.29766C10.8162 5.29766 12.3291 6.80701 12.3291 8.6689C12.3291 10.5308 10.8162 12.0401 8.94997 12.0401C7.08371 12.0401 5.57082 10.5308 5.57082 8.6689C5.57082 6.80701 7.08371 5.29766 8.94997 5.29766ZM15.2255 0H2.67442C1.3414 0 0.260742 1.07813 0.260742 2.40803V14.9298C0.260742 16.2597 1.3414 17.3378 2.67442 17.3378H15.2255C16.5585 17.3378 17.6392 16.2597 17.6392 14.9298V2.40803C17.6392 1.07813 16.5585 0 15.2255 0Z"
        fill="#EBCB80"></path>
    </g>
  </symbol>
  <symbol viewBox="0 0 0 0" id="instagram">
    <symbol fill="none" xmlns="http://www.w3.org/2000/svg" viewBox="0 0 16 16" id="light">
      <mask id="mask0_1_749" maskUnits="userSpaceOnUse" x="0" y="0" width="16" height="16">
        <path fill-rule="evenodd" clip-rule="evenodd" d="M0 15.9967H16V0H0V15.9967Z" fill="white"></path>
      </mask>
      <g mask="url(#mask0_1_749)">
        <path fill-rule="evenodd" clip-rule="evenodd"
          d="M14.2222 4.44444C14.2222 4.68989 14.0232 4.88889 13.7778 4.88889H11.5556C11.3101 4.88889 11.1111 4.68989 11.1111 4.44444V2.22222C11.1111 1.97678 11.3101 1.77778 11.5556 1.77778H13.7778C14.0232 1.77778 14.2222 1.97678 14.2222 2.22222V4.44444ZM14.2222 13.7778C14.2222 14.0232 14.0232 14.2222 13.7778 14.2222H2.22222C1.97678 14.2222 1.77778 14.0232 1.77778 13.7778V6.66667H3.29522C3.17533 7.0905 3.11111 7.53778 3.11111 8C3.11111 10.7001 5.29994 12.8889 8 12.8889C10.7001 12.8889 12.8889 10.7001 12.8889 8C12.8889 7.53778 12.8247 7.0905 12.7048 6.66667H14.2222V13.7778ZM8 4.88889C9.71822 4.88889 11.1111 6.28178 11.1111 8C11.1111 9.71822 9.71822 11.1111 8 11.1111C6.28178 11.1111 4.88889 9.71822 4.88889 8C4.88889 6.28178 6.28178 4.88889 8 4.88889ZM13.7778 0H2.22222C0.994945 0 0 0.994945 0 2.22222V13.7778C0 15.0051 0.994945 16 2.22222 16H13.7778C15.0051 16 16 15.0051 16 13.7778V2.22222C16 0.994945 15.0051 0 13.7778 0Z"
          fill="white"></path>
      </g>
    </symbol>
  </symbol>
</svg>