<svg width="0" height="0" class="hidden">
  <symbol fill="none" xmlns="http://www.w3.org/2000/svg" viewBox="0 0 20 18" id="primary">
    <mask id="mask0_1_890" maskUnits="userSpaceOnUse" x="0" y="0" width="19" height="18">
      <path fill-rule="evenodd" clip-rule="evenodd" d="M0.0922852 17.97H18.6117V0H0.0922852V17.97Z"
        fill="white"></path>
    </mask>
    <g mask="url(#mask0_1_890)">
      <path fill-rule="evenodd" clip-rule="evenodd"
        d="M15.8738 15.338H13.1277V11.1605C13.1277 10.1645 13.1097 8.883 11.7002 8.883C10.271 8.883 10.0529 9.9685 10.0529 11.0895V15.338H7.30939V6.748H9.94231V7.9225H9.97986C10.3461 7.247 11.2428 6.535 12.5793 6.535C15.3599 6.535 15.8738 8.3135 15.8738 10.627V15.338ZM4.21194 5.5745C3.32967 5.5745 2.61871 4.881 2.61871 4.026C2.61871 3.1715 3.32967 2.478 4.21194 2.478C5.0906 2.478 5.80414 3.1715 5.80414 4.026C5.80414 4.881 5.0906 5.5745 4.21194 5.5745ZM2.83683 15.338H5.58601V6.748H2.83683V15.338ZM17.2417 0H1.45864C0.704986 0 0.0922852 0.581 0.0922852 1.298V16.701C0.0922852 17.418 0.704986 18 1.45864 18H17.2417C17.9974 18 18.6117 17.418 18.6117 16.701V1.298C18.6117 0.581 17.9974 0 17.2417 0Z"
        fill="#EBCB80"></path>
    </g>
  </symbol>
  <symbol fill="none" xmlns="http://www.w3.org/2000/svg" viewBox="0 0 23 23" id="dark">
    <mask id="mask0_1_1053" maskUnits="userSpaceOnUse" x="0" y="0" width="23" height="23">
      <path fill-rule="evenodd" clip-rule="evenodd"
        d="M0.351074 22.2461H22.2905V0.891235H0.351074V22.2461Z" fill="white"></path>
    </mask>
    <g mask="url(#mask0_1_1053)">
      <path fill-rule="evenodd" clip-rule="evenodd"
        d="M19.047 19.1183H15.7938V14.154C15.7938 12.9703 15.7725 11.4475 14.1026 11.4475C12.4095 11.4475 12.1511 12.7374 12.1511 14.0696V19.1183H8.90097V8.91031H12.0201V10.306H12.0646C12.4985 9.5033 13.5608 8.65719 15.1441 8.65719C18.4382 8.65719 19.047 10.7707 19.047 13.52V19.1183ZM5.23151 7.51576C4.18631 7.51576 3.34406 6.69163 3.34406 5.67558C3.34406 4.66013 4.18631 3.836 5.23151 3.836C6.27244 3.836 7.11774 4.66013 7.11774 5.67558C7.11774 6.69163 6.27244 7.51576 5.23151 7.51576ZM3.60246 19.1183H6.85933V8.91031H3.60246V19.1183ZM20.6675 0.891235H1.96976C1.07692 0.891235 0.351074 1.58167 0.351074 2.43373V20.7381C0.351074 21.5901 1.07692 22.2818 1.96976 22.2818H20.6675C21.5628 22.2818 22.2905 21.5901 22.2905 20.7381V2.43373C22.2905 1.58167 21.5628 0.891235 20.6675 0.891235Z"
        fill="#7D7D7D"></path>
    </g>
  </symbol>
</svg>