<svg width="0" height="0" class="hidden">
  <symbol fill="none" xmlns="http://www.w3.org/2000/svg" viewBox="0 0 22 22" id="dark">
    <g clip-path="url(#clip0_1_1060)">
      <path fill-rule="evenodd" clip-rule="evenodd"
        d="M10.9265 0.280273C5.03807 0.280273 0.26416 5.0684 0.26416 10.9752C0.26416 15.5063 3.07438 19.3764 7.04098 20.9344C6.9475 20.0885 6.86318 18.7902 7.07759 17.8669C7.27174 17.0322 8.3281 12.5503 8.3281 12.5503C8.3281 12.5503 8.0091 11.9096 8.0091 10.9628C8.0091 9.47556 8.86805 8.36541 9.93814 8.36541C10.8481 8.36541 11.2874 9.04999 11.2874 9.87162C11.2874 10.7896 10.7049 12.1614 10.4042 13.4329C10.1532 14.4971 10.9363 15.3653 11.9829 15.3653C13.8779 15.3653 15.335 13.3608 15.335 10.4677C15.335 7.90705 13.5008 6.11626 10.8814 6.11626C7.84764 6.11626 6.06698 8.39885 6.06698 10.7582C6.06698 11.6768 6.41998 12.6631 6.86056 13.1988C6.9475 13.3044 6.96058 13.3975 6.93443 13.5057C6.85337 13.8434 6.67361 14.5699 6.63831 14.7181C6.5919 14.9142 6.48338 14.9555 6.28139 14.8617C4.94982 14.2394 4.11767 12.2867 4.11767 10.7182C4.11767 7.34444 6.56117 4.24612 11.1625 4.24612C14.8604 4.24612 17.7354 6.89002 17.7354 10.4231C17.7354 14.1089 15.418 17.0755 12.2025 17.0755C11.122 17.0755 10.1068 16.5122 9.75903 15.8473C9.75903 15.8473 9.22431 17.8892 9.09488 18.3895C8.85367 19.3187 8.2039 20.4833 7.7692 21.1934C8.76673 21.5029 9.82702 21.6701 10.9265 21.6701C16.8143 21.6701 21.5882 16.882 21.5882 10.9752C21.5882 5.0684 16.8143 0.280273 10.9265 0.280273Z"
        fill="#7D7D7D"></path>
    </g>
    <defs>
      <clipPath id="clip0_1_1060">
        <rect width="22" height="22" fill="white"></rect>
      </clipPath>
    </defs>
  </symbol>
  <symbol fill="none" xmlns="http://www.w3.org/2000/svg" viewBox="0 0 18 18" id="primary">
    <g clip-path="url(#clip0_1_1098)">
      <path fill-rule="evenodd" clip-rule="evenodd"
        d="M0 8.66863C0 12.3412 2.29024 15.4781 5.5229 16.7409C5.44671 16.0553 5.37799 15.0029 5.55273 14.2546C5.71095 13.578 6.57186 9.94527 6.57186 9.94527C6.57186 9.94527 6.31188 9.42601 6.31188 8.65853C6.31188 7.45311 7.0119 6.55329 7.88399 6.55329C8.62556 6.55329 8.98356 7.10817 8.98356 7.77413C8.98356 8.51822 8.50889 9.6301 8.26383 10.6607C8.05926 11.5233 8.69748 12.227 9.5504 12.227C11.0948 12.227 12.2823 10.6022 12.2823 8.25726C12.2823 6.18178 10.7874 4.73028 8.65273 4.73028C6.18029 4.73028 4.72912 6.5804 4.72912 8.49271C4.72912 9.23733 5.0168 10.0367 5.37586 10.4709C5.44671 10.5565 5.45737 10.632 5.43606 10.7197C5.37 10.9934 5.2235 11.5823 5.19473 11.7024C5.15691 11.8613 5.06847 11.8948 4.90385 11.8188C3.81867 11.3144 3.14049 9.73161 3.14049 8.46029C3.14049 5.72576 5.13187 3.21446 8.88181 3.21446C11.8955 3.21446 14.2385 5.35744 14.2385 8.22111C14.2385 11.2086 12.3499 13.6131 9.7294 13.6131C8.84878 13.6131 8.02144 13.1565 7.73802 12.6176C7.73802 12.6176 7.30224 14.2727 7.19676 14.6782C7.00018 15.4313 6.47064 16.3753 6.11637 16.9509C6.92932 17.2017 7.79343 17.3373 8.68949 17.3373C13.4879 17.3373 17.3785 13.4563 17.3785 8.66863C17.3785 3.88095 13.4879 0 8.68949 0C3.89059 0 0 3.88095 0 8.66863Z"
        fill="#EBCB80"></path>
    </g>
    <defs>
      <clipPath id="clip0_1_1098">
        <rect width="18" height="18" fill="white"></rect>
      </clipPath>
    </defs>
  </symbol>
</svg>